PathFileType	4	(X/Y/Z)	 2.8Hzhigh3min.trc
DataRate	CameraRate	NumFrames	NumMarkers	Units	OrigDataRate	OrigDataStartFrame	OrigNumFrames
200	200	8	39	m	200	494	987
Frame#	Time	C7			LSH			RSH			MAN			RASI			LASI			HIPR			HIPL			RPSI			LPSI			COX			RTHI1			RTHI2			RTHI3			RTHI4			RLKN			RMKN			RSHA1			RSHA2			RSHA3			RSHA4			RHEEL			RMET5			RMET1			RTOE			LTHI1			LTHI2			LTHI3			LTHI4			LLKN			LMKN			LSHA1			LSHA2			LSHA3			LSHA4			LHEEL			LMET5			LMET1			LTOE			
		X1	Y1	Z1	X2	Y2	Z2	X3	Y3	Z3	X4	Y4	Z4	X5	Y5	Z5	X6	Y6	Z6	X7	Y7	Z7	X8	Y8	Z8	X9	Y9	Z9	X10	Y10	Z10	X11	Y11	Z11	X12	Y12	Z12	X13	Y13	Z13	X14	Y14	Z14	X15	Y15	Z15	X16	Y16	Z16	X17	Y17	Z17	X18	Y18	Z18	X19	Y19	Z19	X20	Y20	Z20	X21	Y21	Z21	X22	Y22	Z22	X23	Y23	Z23	X24	Y24	Z24	X25	Y25	Z25	X26	Y26	Z26	X27	Y27	Z27	X28	Y28	Z28	X29	Y29	Z29	X30	Y30	Z30	X31	Y31	Z31	X32	Y32	Z32	X33	Y33	Z33	X34	Y34	Z34	X35	Y35	Z35	X36	Y36	Z36	X37	Y37	Z37	X38	Y38	Z38	X39	Y39	Z39	
494	2.4700	-0.295460	1.577867	-0.510670	-0.266213	1.577280	-0.694555	-0.246404	1.560171	-0.335881	-0.145939	1.542028	-0.526396	-0.149837	1.060970	-0.424982	-0.160819	1.073614	-0.660511	-0.216825	1.143497	-0.371154	-0.224316	1.162850	-0.694895	-0.325927	1.130355	-0.494375	-0.328635	1.135405	-0.571402	-0.327643	1.130019	-0.532058	-0.262259	0.891356	-0.345894	-0.253779	0.832833	-0.338703	-0.189256	0.840813	-0.335600	-0.190698	0.901873	-0.343240	-0.267643	0.556543	-0.361579	-0.225539	0.543575	-0.479757	-0.330360	0.402471	-0.348827	-0.347078	0.364103	-0.359983	-0.289499	0.344801	-0.354020	-0.276598	0.382520	-0.348117	-0.392118	0.173862	-0.431493	-0.261683	0.062491	-0.366754	-0.210099	0.080340	-0.424568	-0.186115	0.069016	-0.416263	-0.282754	0.870550	-0.727763	-0.260106	0.813621	-0.736633	-0.200496	0.834021	-0.751620	-0.214567	0.892502	-0.745126	-0.249249	0.578470	-0.726950	-0.214992	0.560527	-0.606529	-0.337210	0.363654	-0.724382	-0.347506	0.325412	-0.716339	-0.290017	0.312262	-0.738307	-0.287362	0.355636	-0.743692	-0.381990	0.169872	-0.659367	-0.254573	0.073299	-0.743668	-0.201252	0.084975	-0.687669	-0.176838	0.070691	-0.698359	
495	2.4750	-0.295289	1.577207	-0.510877	-0.266045	1.576301	-0.695029	-0.246134	1.559068	-0.335817	-0.145804	1.540914	-0.526622	-0.150193	1.060123	-0.425159	-0.161187	1.072716	-0.660545	-0.217239	1.142505	-0.371223	-0.225026	1.161384	-0.694986	-0.326506	1.129125	-0.494553	-0.329216	1.134101	-0.571609	-0.328314	1.128739	-0.532273	-0.261515	0.890292	-0.345580	-0.252882	0.831794	-0.338545	-0.188336	0.839897	-0.336124	-0.189985	0.900976	-0.343715	-0.267074	0.555606	-0.361898	-0.225851	0.542966	-0.480412	-0.330079	0.401640	-0.349322	-0.346878	0.363270	-0.360561	-0.289338	0.343902	-0.354858	-0.276335	0.381592	-0.348898	-0.392565	0.173106	-0.432152	-0.261361	0.062004	-0.368647	-0.210253	0.080150	-0.426979	-0.186246	0.068832	-0.418869	-0.281860	0.869692	-0.728684	-0.259022	0.812808	-0.737280	-0.199246	0.833276	-0.751427	-0.213476	0.891729	-0.745093	-0.248724	0.577958	-0.727211	-0.215265	0.560093	-0.606654	-0.336744	0.363086	-0.725312	-0.347209	0.324895	-0.717230	-0.289487	0.311566	-0.738431	-0.286681	0.354910	-0.743938	-0.382690	0.169537	-0.660465	-0.253815	0.072403	-0.741744	-0.201566	0.084505	-0.684908	-0.176911	0.070167	-0.694963	
496	2.4800	-0.295095	1.576311	-0.511092	-0.265848	1.575068	-0.695508	-0.245846	1.557736	-0.335743	-0.145647	1.539553	-0.526843	-0.150562	1.059026	-0.425337	-0.161519	1.071617	-0.660559	-0.217711	1.141278	-0.371292	-0.225744	1.159755	-0.695063	-0.327102	1.127590	-0.494726	-0.329820	1.132488	-0.571804	-0.329026	1.127157	-0.532483	-0.260788	0.888997	-0.345293	-0.252016	0.830536	-0.338416	-0.187455	0.838749	-0.336636	-0.189289	0.899833	-0.344176	-0.266458	0.554413	-0.362214	-0.226187	0.542134	-0.481098	-0.329716	0.400520	-0.349815	-0.346623	0.362173	-0.361094	-0.289115	0.342741	-0.355724	-0.276003	0.380390	-0.349701	-0.392997	0.172149	-0.432877	-0.261113	0.061285	-0.370574	-0.210456	0.079663	-0.429416	-0.186418	0.068353	-0.421496	-0.280983	0.868686	-0.729561	-0.257951	0.811851	-0.737910	-0.198029	0.832404	-0.751228	-0.212424	0.890827	-0.745029	-0.248151	0.577190	-0.727444	-0.215684	0.559436	-0.606692	-0.336103	0.362231	-0.726324	-0.346747	0.324077	-0.718206	-0.288752	0.310575	-0.738525	-0.285790	0.353908	-0.744157	-0.383319	0.169071	-0.661427	-0.253348	0.071136	-0.739840	-0.202093	0.083574	-0.682235	-0.177263	0.069161	-0.691700	
497	2.4850	-0.294882	1.575173	-0.511314	-0.265623	1.573580	-0.695990	-0.245553	1.556179	-0.335666	-0.145467	1.537949	-0.527059	-0.150950	1.057680	-0.425524	-0.161821	1.070314	-0.660560	-0.218223	1.139809	-0.371361	-0.226454	1.157970	-0.695132	-0.327724	1.125775	-0.494889	-0.330446	1.130593	-0.571984	-0.329769	1.125287	-0.532684	-0.260090	0.887488	-0.345044	-0.251200	0.829054	-0.338322	-0.186626	0.837350	-0.337138	-0.188629	0.898441	-0.344621	-0.265782	0.552979	-0.362535	-0.226502	0.541064	-0.481803	-0.329277	0.399158	-0.350312	-0.346299	0.360864	-0.361647	-0.288823	0.341319	-0.356621	-0.275605	0.378941	-0.350522	-0.393447	0.171027	-0.433687	-0.260974	0.060314	-0.372518	-0.210738	0.078863	-0.431818	-0.186662	0.067556	-0.424090	-0.280159	0.867528	-0.730410	-0.256916	0.810737	-0.738501	-0.196871	0.831386	-0.751028	-0.211439	0.889783	-0.744937	-0.247506	0.576150	-0.727653	-0.216233	0.558529	-0.606649	-0.335319	0.361100	-0.727381	-0.346143	0.322979	-0.719240	-0.287857	0.309313	-0.738583	-0.284737	0.352626	-0.744337	-0.383942	0.168507	-0.662299	-0.253192	0.069532	-0.738046	-0.202848	0.082178	-0.679735	-0.177910	0.067672	-0.688670	
498	2.4900	-0.294653	1.573786	-0.511541	-0.265377	1.571839	-0.696470	-0.245246	1.554408	-0.335569	-0.145269	1.536106	-0.527267	-0.151355	1.056093	-0.425715	-0.162104	1.068792	-0.660551	-0.218764	1.138094	-0.371431	-0.227138	1.156041	-0.695193	-0.328389	1.123703	-0.495051	-0.331083	1.128439	-0.572150	-0.330532	1.123149	-0.532880	-0.259446	0.885750	-0.344840	-0.250445	0.827338	-0.338275	-0.185862	0.835712	-0.337631	-0.188015	0.896817	-0.345053	-0.265039	0.551315	-0.362870	-0.226747	0.539753	-0.482512	-0.328765	0.397544	-0.350809	-0.345917	0.359349	-0.362217	-0.288471	0.339653	-0.357541	-0.275139	0.377239	-0.351367	-0.393923	0.169748	-0.434565	-0.260977	0.059079	-0.374463	-0.211137	0.077731	-0.434139	-0.186999	0.066428	-0.426604	-0.279408	0.866202	-0.731218	-0.255942	0.809449	-0.739037	-0.195797	0.830205	-0.750832	-0.210537	0.888574	-0.744825	-0.246772	0.574828	-0.727843	-0.216884	0.557358	-0.606539	-0.334442	0.359702	-0.728440	-0.345452	0.321620	-0.720291	-0.286876	0.307786	-0.738603	-0.283590	0.351088	-0.744484	-0.384589	0.167844	-0.663097	-0.253353	0.067640	-0.736450	-0.203840	0.080338	-0.677477	-0.178853	0.065729	-0.685958	
499	2.4950	-0.294413	1.572147	-0.511771	-0.265112	1.569844	-0.696944	-0.244950	1.552431	-0.335484	-0.145061	1.534027	-0.527470	-0.151780	1.054270	-0.425908	-0.162374	1.067042	-0.660538	-0.219330	1.136146	-0.371501	-0.227762	1.153971	-0.695246	-0.329087	1.121387	-0.495209	-0.331724	1.126038	-0.572303	-0.331313	1.120766	-0.533066	-0.258885	0.883801	-0.344720	-0.249750	0.825390	-0.338272	-0.185164	0.833854	-0.338112	-0.187456	0.894956	-0.345471	-0.264233	0.549420	-0.363209	-0.226887	0.538196	-0.483212	-0.328190	0.395696	-0.351310	-0.345485	0.357608	-0.362792	-0.288069	0.337749	-0.358479	-0.274613	0.375297	-0.352227	-0.394427	0.168324	-0.435521	-0.261152	0.057570	-0.376391	-0.211666	0.076252	-0.436354	-0.187450	0.064956	-0.429007	-0.278743	0.864695	-0.731976	-0.255052	0.807961	-0.739508	-0.194832	0.828827	-0.750648	-0.209732	0.887175	-0.744697	-0.245931	0.573224	-0.728023	-0.217596	0.555923	-0.606385	-0.333529	0.358066	-0.729456	-0.344735	0.320021	-0.721315	-0.285894	0.306015	-0.738593	-0.282426	0.349309	-0.744596	-0.385284	0.167053	-0.663815	-0.253823	0.065527	-0.735127	-0.205058	0.078084	-0.675517	-0.180076	0.063376	-0.683632	
500	2.5000	-0.294162	1.570248	-0.512005	-0.264831	1.567602	-0.697409	-0.244675	1.550231	-0.335446	-0.144849	1.531714	-0.527666	-0.152222	1.052213	-0.426099	-0.162642	1.065058	-0.660525	-0.219904	1.133968	-0.371575	-0.228323	1.151763	-0.695295	-0.329798	1.118827	-0.495363	-0.332358	1.123427	-0.572443	-0.332099	1.118150	-0.533235	-0.258409	0.881636	-0.344692	-0.249120	0.823213	-0.338308	-0.184533	0.831773	-0.338577	-0.186967	0.892867	-0.345876	-0.263352	0.547295	-0.363547	-0.226899	0.536394	-0.483883	-0.327563	0.393662	-0.351818	-0.345008	0.355658	-0.363359	-0.287629	0.335616	-0.359425	-0.274043	0.373116	-0.353100	-0.394969	0.166762	-0.436555	-0.261531	0.055779	-0.378287	-0.212338	0.074410	-0.438445	-0.188031	0.063128	-0.431275	-0.278171	0.862989	-0.732679	-0.254264	0.806255	-0.739911	-0.193986	0.827228	-0.750484	-0.209034	0.885557	-0.744566	-0.244990	0.571337	-0.728203	-0.218306	0.554219	-0.606213	-0.332643	0.356221	-0.730399	-0.344059	0.318207	-0.722267	-0.284989	0.304020	-0.738560	-0.281320	0.347306	-0.744687	-0.386007	0.166044	-0.664415	-0.254583	0.063245	-0.734125	-0.206486	0.075470	-0.673901	-0.181547	0.060658	-0.681739	
501	2.5050	-0.293904	1.568092	-0.512239	-0.264541	1.565112	-0.697865	-0.244411	1.547810	-0.335429	-0.144635	1.529168	-0.527852	-0.152680	1.049926	-0.426282	-0.162913	1.062832	-0.660516	-0.220481	1.131566	-0.371654	-0.228828	1.149413	-0.695343	-0.330536	1.116040	-0.495509	-0.332959	1.120628	-0.572590	-0.332861	1.115311	-0.533390	-0.257999	0.879227	-0.344720	-0.248547	0.820791	-0.338391	-0.183961	0.829460	-0.339024	-0.186549	0.890553	-0.346266	-0.262398	0.544945	-0.363881	-0.226774	0.534341	-0.484518	-0.326901	0.391413	-0.352323	-0.344513	0.353536	-0.363933	-0.287162	0.333257	-0.360380	-0.273441	0.370703	-0.353977	-0.395564	0.165063	-0.437663	-0.262131	0.053710	-0.380133	-0.213157	0.072218	-0.440396	-0.188763	0.060932	-0.433395	-0.277698	0.861065	-0.733327	-0.253592	0.804327	-0.740278	-0.193261	0.825378	-0.750347	-0.208443	0.883697	-0.744434	-0.243945	0.569174	-0.728393	-0.218967	0.552253	-0.606049	-0.331847	0.354190	-0.731243	-0.343483	0.316220	-0.723117	-0.284236	0.301826	-0.738527	-0.280349	0.345085	-0.744765	-0.386822	0.164838	-0.664930	-0.255615	0.060835	-0.733463	-0.208100	0.072560	-0.672665	-0.183231	0.057640	-0.680307	
